<svg width="512" height="512" viewBox="0 0 512 512" fill="none" xmlns="http://www.w3.org/2000/svg">
<g clip-path="url(#clip0_5_28)">
<path d="M326.441 21.239L136.496 234.106C125.365 246.58 125.365 265.421 136.496 277.895L326.441 490.761C346.553 513.3 383.862 499.074 383.862 468.866L383.862 43.134C383.863 12.927 346.552 -1.29999 326.441 21.239Z" fill="#8AE9FF"/>
<path d="M117.94 256.001C117.94 245.745 121.587 235.493 128.884 227.315L318.83 14.449C330.835 0.995003 349.479 -3.548 366.327 2.876C383.175 9.3 394.062 25.103 394.062 43.134L394.062 468.866C394.062 486.897 383.176 502.699 366.327 509.124C349.478 515.548 330.834 511.006 318.83 497.552L128.886 284.687C121.589 276.51 117.94 266.253 117.94 256.001ZM334.05 28.031L144.105 240.898C136.422 249.508 136.421 262.494 144.106 271.105L334.05 483.97C341.721 492.569 352 492.754 359.059 490.063C366.119 487.37 373.662 480.389 373.662 468.867L373.662 43.134C373.662 31.611 366.118 24.629 359.06 21.938C352 19.246 341.724 19.432 334.05 28.031Z" fill="#248A9C"/>
<path d="M262.388 380.31C262.388 377.504 263.539 374.71 265.797 372.695C270 368.944 276.448 369.313 280.199 373.515L284.869 378.749C288.618 382.954 288.249 389.402 284.049 393.151C279.846 396.901 273.398 396.533 269.647 392.331L264.977 387.097C263.241 385.152 262.388 382.725 262.388 380.31Z" fill="#248A9C"/>
<path d="M152.986 257.706C152.986 254.9 154.137 252.106 156.395 250.092C160.598 246.341 167.046 246.709 170.796 250.912L256.733 347.218C260.486 351.423 260.115 357.871 255.914 361.619C251.711 365.371 245.263 365.002 241.513 360.8L155.576 264.493C153.84 262.548 152.986 260.122 152.986 257.706Z" fill="#248A9C"/>
</g>
<defs>
<clipPath id="clip0_5_28">
<rect width="512.001" height="512.001" fill="white" transform="translate(512.001) rotate(90)"/>
</clipPath>
</defs>
</svg>
