<svg width="513" height="513" viewBox="0 0 513 513" fill="none" xmlns="http://www.w3.org/2000/svg">
<g clip-path="url(#clip0_5_34)">
<path d="M185.614 490.816L375.559 277.949C386.69 265.475 386.69 246.634 375.559 234.16L185.614 21.294C165.502 -1.24499 128.193 12.981 128.193 43.189L128.193 468.921C128.192 499.128 165.503 513.355 185.614 490.816Z" fill="#8AE9FF"/>
<path d="M394.115 256.054C394.115 266.31 390.468 276.562 383.171 284.74L193.225 497.606C181.22 511.06 162.576 515.603 145.728 509.179C128.88 502.755 117.993 486.952 117.993 468.921L117.993 43.189C117.993 25.158 128.879 9.35597 145.728 2.93097C162.577 -3.49303 181.221 1.04896 193.225 14.503L383.169 227.368C390.466 235.545 394.115 245.802 394.115 256.054ZM178.005 484.024L367.95 271.157C375.633 262.547 375.634 249.561 367.949 240.95L178.005 28.085C170.334 19.486 160.055 19.301 152.996 21.992C145.936 24.685 138.393 31.666 138.393 43.188L138.393 468.921C138.393 480.444 145.937 487.426 152.995 490.117C160.055 492.809 170.331 492.623 178.005 484.024Z" fill="#248A9C"/>
<path d="M249.667 131.745C249.667 134.551 248.516 137.345 246.258 139.36C242.055 143.111 235.607 142.742 231.856 138.54L227.186 133.306C223.437 129.101 223.806 122.653 228.006 118.904C232.209 115.154 238.657 115.522 242.408 119.724L247.078 124.958C248.814 126.903 249.667 129.33 249.667 131.745Z" fill="#248A9C"/>
<path d="M359.069 254.349C359.069 257.155 357.918 259.949 355.66 261.963C351.457 265.714 345.009 265.346 341.259 261.143L255.322 164.837C251.569 160.632 251.94 154.184 256.141 150.436C260.344 146.684 266.792 147.053 270.542 151.255L356.479 247.562C358.215 249.507 359.069 251.933 359.069 254.349Z" fill="#248A9C"/>
</g>
<defs>
<clipPath id="clip0_5_34">
<rect width="512.001" height="512.001" fill="white" transform="translate(0.0540161 512.055) rotate(-90)"/>
</clipPath>
</defs>
</svg>
